<?xml version="1.0" encoding="UTF-8" standalone="no"?>
<!DOCTYPE svg PUBLIC "-//W3C//DTD SVG 1.1//EN"
 "http://www.w3.org/Graphics/SVG/1.1/DTD/svg11.dtd">
<!-- Generated by graphviz version 2.47.3 (0)
 -->
<!-- Title: snakemake_dag Pages: 1 -->
<svg width="266pt" height="404pt"
 viewBox="0.00 0.00 266.00 404.00" xmlns="http://www.w3.org/2000/svg" xmlns:xlink="http://www.w3.org/1999/xlink">
<g id="graph0" class="graph" transform="scale(1 1) rotate(0) translate(4 400)">
<title>snakemake_dag</title>
<polygon fill="white" stroke="transparent" points="-4,4 -4,-400 262,-400 262,4 -4,4"/>
<!-- 0 -->
<g id="node1" class="node">
<title>0</title>
<path fill="none" stroke="#569ad8" stroke-width="2" d="M119.5,-36C119.5,-36 31.5,-36 31.5,-36 25.5,-36 19.5,-30 19.5,-24 19.5,-24 19.5,-12 19.5,-12 19.5,-6 25.5,0 31.5,0 31.5,0 119.5,0 119.5,0 125.5,0 131.5,-6 131.5,-12 131.5,-12 131.5,-24 131.5,-24 131.5,-30 125.5,-36 119.5,-36"/>
<text text-anchor="middle" x="75.5" y="-15.5" font-family="sans" font-size="10.00">get_quality_measures</text>
</g>
<!-- 1 -->
<g id="node2" class="node">
<title>1</title>
<path fill="none" stroke="#d6d856" stroke-width="2" d="M139,-396C139,-396 12,-396 12,-396 6,-396 0,-390 0,-384 0,-384 0,-372 0,-372 0,-366 6,-360 12,-360 12,-360 139,-360 139,-360 145,-360 151,-366 151,-372 151,-372 151,-384 151,-384 151,-390 145,-396 139,-396"/>
<text text-anchor="middle" x="75.5" y="-375.5" font-family="sans" font-size="10.00">get_quality_filtered_sequences</text>
</g>
<!-- 1&#45;&gt;0 -->
<g id="edge2" class="edge">
<title>1&#45;&gt;0</title>
<path fill="none" stroke="grey" stroke-width="2" d="M67.81,-359.91C56.71,-333.62 37.5,-281.45 37.5,-235 37.5,-235 37.5,-235 37.5,-161 37.5,-119.63 52.73,-73.72 63.91,-45.61"/>
<polygon fill="grey" stroke="grey" stroke-width="2" points="67.26,-46.67 67.81,-36.09 60.78,-44.02 67.26,-46.67"/>
</g>
<!-- 3 -->
<g id="node4" class="node">
<title>3</title>
<path fill="none" stroke="#d89556" stroke-width="2" d="M135,-180C135,-180 82,-180 82,-180 76,-180 70,-174 70,-168 70,-168 70,-156 70,-156 70,-150 76,-144 82,-144 82,-144 135,-144 135,-144 141,-144 147,-150 147,-156 147,-156 147,-168 147,-168 147,-174 141,-180 135,-180"/>
<text text-anchor="middle" x="108.5" y="-159.5" font-family="sans" font-size="10.00">read_mapping</text>
</g>
<!-- 1&#45;&gt;3 -->
<g id="edge5" class="edge">
<title>1&#45;&gt;3</title>
<path fill="none" stroke="grey" stroke-width="2" d="M77.19,-360C80.24,-330.55 87.21,-268.17 96.5,-216 98.01,-207.51 99.97,-198.33 101.87,-190.03"/>
<polygon fill="grey" stroke="grey" stroke-width="2" points="105.32,-190.64 104.2,-180.1 98.51,-189.04 105.32,-190.64"/>
</g>
<!-- 5 -->
<g id="node6" class="node">
<title>5</title>
<path fill="none" stroke="#d85656" stroke-width="2" d="M211.5,-324C211.5,-324 115.5,-324 115.5,-324 109.5,-324 103.5,-318 103.5,-312 103.5,-312 103.5,-300 103.5,-300 103.5,-294 109.5,-288 115.5,-288 115.5,-288 211.5,-288 211.5,-288 217.5,-288 223.5,-294 223.5,-300 223.5,-300 223.5,-312 223.5,-312 223.5,-318 217.5,-324 211.5,-324"/>
<text text-anchor="middle" x="163.5" y="-303.5" font-family="sans" font-size="10.00">metagenome_assembly</text>
</g>
<!-- 1&#45;&gt;5 -->
<g id="edge8" class="edge">
<title>1&#45;&gt;5</title>
<path fill="none" stroke="grey" stroke-width="2" d="M97.25,-359.7C108.34,-350.88 121.97,-340.03 133.99,-330.47"/>
<polygon fill="grey" stroke="grey" stroke-width="2" points="136.35,-333.07 142,-324.1 131.99,-327.59 136.35,-333.07"/>
</g>
<!-- 2 -->
<g id="node3" class="node">
<title>2</title>
<path fill="none" stroke="#97d856" stroke-width="2" d="M149,-108C149,-108 78,-108 78,-108 72,-108 66,-102 66,-96 66,-96 66,-84 66,-84 66,-78 72,-72 78,-72 78,-72 149,-72 149,-72 155,-72 161,-78 161,-84 161,-84 161,-96 161,-96 161,-102 155,-108 149,-108"/>
<text text-anchor="middle" x="113.5" y="-87.5" font-family="sans" font-size="10.00">infer_class_labels</text>
</g>
<!-- 2&#45;&gt;0 -->
<g id="edge1" class="edge">
<title>2&#45;&gt;0</title>
<path fill="none" stroke="grey" stroke-width="2" d="M104.11,-71.7C99.74,-63.64 94.44,-53.89 89.6,-44.98"/>
<polygon fill="grey" stroke="grey" stroke-width="2" points="92.63,-43.22 84.79,-36.1 86.48,-46.56 92.63,-43.22"/>
</g>
<!-- 3&#45;&gt;2 -->
<g id="edge4" class="edge">
<title>3&#45;&gt;2</title>
<path fill="none" stroke="grey" stroke-width="2" d="M109.74,-143.7C110.29,-135.98 110.95,-126.71 111.56,-118.11"/>
<polygon fill="grey" stroke="grey" stroke-width="2" points="115.06,-118.33 112.28,-108.1 108.07,-117.83 115.06,-118.33"/>
</g>
<!-- 4 -->
<g id="node5" class="node">
<title>4</title>
<path fill="none" stroke="#56d8d8" stroke-width="2" d="M205.5,-252C205.5,-252 117.5,-252 117.5,-252 111.5,-252 105.5,-246 105.5,-240 105.5,-240 105.5,-228 105.5,-228 105.5,-222 111.5,-216 117.5,-216 117.5,-216 205.5,-216 205.5,-216 211.5,-216 217.5,-222 217.5,-228 217.5,-228 217.5,-240 217.5,-240 217.5,-246 211.5,-252 205.5,-252"/>
<text text-anchor="middle" x="161.5" y="-231.5" font-family="sans" font-size="10.00">summarise_assembly</text>
</g>
<!-- 4&#45;&gt;3 -->
<g id="edge6" class="edge">
<title>4&#45;&gt;3</title>
<path fill="none" stroke="grey" stroke-width="2" d="M148.4,-215.7C142.11,-207.39 134.45,-197.28 127.54,-188.14"/>
<polygon fill="grey" stroke="grey" stroke-width="2" points="130.28,-185.96 121.45,-180.1 124.7,-190.19 130.28,-185.96"/>
</g>
<!-- 5&#45;&gt;4 -->
<g id="edge7" class="edge">
<title>5&#45;&gt;4</title>
<path fill="none" stroke="grey" stroke-width="2" d="M163.01,-287.7C162.79,-279.98 162.52,-270.71 162.27,-262.11"/>
<polygon fill="grey" stroke="grey" stroke-width="2" points="165.77,-262 161.99,-252.1 158.78,-262.2 165.77,-262"/>
</g>
<!-- 6 -->
<g id="node7" class="node">
<title>6</title>
<path fill="none" stroke="#56d89a" stroke-width="2" d="M246,-180C246,-180 177,-180 177,-180 171,-180 165,-174 165,-168 165,-168 165,-156 165,-156 165,-150 171,-144 177,-144 177,-144 246,-144 246,-144 252,-144 258,-150 258,-156 258,-156 258,-168 258,-168 258,-174 252,-180 246,-180"/>
<text text-anchor="middle" x="211.5" y="-159.5" font-family="sans" font-size="10.00">get_virmet_labels</text>
</g>
<!-- 6&#45;&gt;2 -->
<g id="edge3" class="edge">
<title>6&#45;&gt;2</title>
<path fill="none" stroke="grey" stroke-width="2" d="M187.53,-143.88C174.95,-134.89 159.37,-123.76 145.75,-114.03"/>
<polygon fill="grey" stroke="grey" stroke-width="2" points="147.74,-111.15 137.57,-108.19 143.67,-116.85 147.74,-111.15"/>
</g>
</g>
</svg>
