<?xml version="1.0" encoding="UTF-8" standalone="no"?>
<!DOCTYPE svg PUBLIC "-//W3C//DTD SVG 1.1//EN"
 "http://www.w3.org/Graphics/SVG/1.1/DTD/svg11.dtd">
<!-- Generated by graphviz version 2.47.3 (0)
 -->
<!-- Title: snakemake_dag Pages: 1 -->
<svg width="137pt" height="116pt"
 viewBox="0.00 0.00 137.00 116.00" xmlns="http://www.w3.org/2000/svg" xmlns:xlink="http://www.w3.org/1999/xlink">
<g id="graph0" class="graph" transform="scale(1 1) rotate(0) translate(4 112)">
<title>snakemake_dag</title>
<polygon fill="white" stroke="transparent" points="-4,4 -4,-112 133,-112 133,4 -4,4"/>
<!-- 0 -->
<g id="node1" class="node">
<title>0</title>
<path fill="none" stroke="#59d856" stroke-width="2" d="M108.5,-36C108.5,-36 20.5,-36 20.5,-36 14.5,-36 8.5,-30 8.5,-24 8.5,-24 8.5,-12 8.5,-12 8.5,-6 14.5,0 20.5,0 20.5,0 108.5,0 108.5,0 114.5,0 120.5,-6 120.5,-12 120.5,-12 120.5,-24 120.5,-24 120.5,-30 114.5,-36 108.5,-36"/>
<text text-anchor="middle" x="64.5" y="-15.5" font-family="sans" font-size="10.00">get_quality_measures</text>
</g>
<!-- 1 -->
<g id="node2" class="node">
<title>1</title>
<path fill="none" stroke="#d85656" stroke-width="2" d="M117,-108C117,-108 12,-108 12,-108 6,-108 0,-102 0,-96 0,-96 0,-84 0,-84 0,-78 6,-72 12,-72 12,-72 117,-72 117,-72 123,-72 129,-78 129,-84 129,-84 129,-96 129,-96 129,-102 123,-108 117,-108"/>
<text text-anchor="middle" x="64.5" y="-87.5" font-family="sans" font-size="10.00">get_classified_sequences</text>
</g>
<!-- 1&#45;&gt;0 -->
<g id="edge1" class="edge">
<title>1&#45;&gt;0</title>
<path fill="none" stroke="grey" stroke-width="2" d="M64.5,-71.7C64.5,-63.98 64.5,-54.71 64.5,-46.11"/>
<polygon fill="grey" stroke="grey" stroke-width="2" points="68,-46.1 64.5,-36.1 61,-46.1 68,-46.1"/>
</g>
</g>
</svg>
