<?xml version="1.0" encoding="UTF-8" standalone="no"?>
<!DOCTYPE svg PUBLIC "-//W3C//DTD SVG 1.1//EN"
 "http://www.w3.org/Graphics/SVG/1.1/DTD/svg11.dtd">
<!-- Generated by graphviz version 2.47.3 (0)
 -->
<!-- Title: snakemake_dag Pages: 1 -->
<svg width="266pt" height="332pt"
 viewBox="0.00 0.00 266.00 332.00" xmlns="http://www.w3.org/2000/svg" xmlns:xlink="http://www.w3.org/1999/xlink">
<g id="graph0" class="graph" transform="scale(1 1) rotate(0) translate(4 328)">
<title>snakemake_dag</title>
<polygon fill="white" stroke="transparent" points="-4,4 -4,-328 262,-328 262,4 -4,4"/>
<!-- 0 -->
<g id="node1" class="node">
<title>0</title>
<path fill="none" stroke="#78d856" stroke-width="2" d="M114,-36C114,-36 37,-36 37,-36 31,-36 25,-30 25,-24 25,-24 25,-12 25,-12 25,-6 31,0 37,0 37,0 114,0 114,0 120,0 126,-6 126,-12 126,-12 126,-24 126,-24 126,-30 120,-36 114,-36"/>
<text text-anchor="middle" x="75.5" y="-15.5" font-family="sans" font-size="10.00">get_quality_metrics</text>
</g>
<!-- 1 -->
<g id="node2" class="node">
<title>1</title>
<path fill="none" stroke="#56d8c9" stroke-width="2" d="M139,-324C139,-324 12,-324 12,-324 6,-324 0,-318 0,-312 0,-312 0,-300 0,-300 0,-294 6,-288 12,-288 12,-288 139,-288 139,-288 145,-288 151,-294 151,-300 151,-300 151,-312 151,-312 151,-318 145,-324 139,-324"/>
<text text-anchor="middle" x="75.5" y="-303.5" font-family="sans" font-size="10.00">get_quality_filtered_sequences</text>
</g>
<!-- 1&#45;&gt;0 -->
<g id="edge1" class="edge">
<title>1&#45;&gt;0</title>
<path fill="none" stroke="grey" stroke-width="2" d="M71.17,-287.91C62.01,-249.2 42.6,-151.97 56.5,-72 58.02,-63.24 60.86,-54.01 63.89,-45.75"/>
<polygon fill="grey" stroke="grey" stroke-width="2" points="67.22,-46.84 67.61,-36.25 60.71,-44.29 67.22,-46.84"/>
</g>
<!-- 3 -->
<g id="node4" class="node">
<title>3</title>
<path fill="none" stroke="#d8a456" stroke-width="2" d="M135,-180C135,-180 82,-180 82,-180 76,-180 70,-174 70,-168 70,-168 70,-156 70,-156 70,-150 76,-144 82,-144 82,-144 135,-144 135,-144 141,-144 147,-150 147,-156 147,-156 147,-168 147,-168 147,-174 141,-180 135,-180"/>
<text text-anchor="middle" x="108.5" y="-159.5" font-family="sans" font-size="10.00">read_mapping</text>
</g>
<!-- 1&#45;&gt;3 -->
<g id="edge6" class="edge">
<title>1&#45;&gt;3</title>
<path fill="none" stroke="grey" stroke-width="2" d="M78.9,-287.88C82.53,-269.92 88.56,-240.9 94.5,-216 96.52,-207.54 98.88,-198.36 101.08,-190.06"/>
<polygon fill="grey" stroke="grey" stroke-width="2" points="104.54,-190.7 103.75,-180.13 97.78,-188.88 104.54,-190.7"/>
</g>
<!-- 4 -->
<g id="node5" class="node">
<title>4</title>
<path fill="none" stroke="#d85656" stroke-width="2" d="M211.5,-252C211.5,-252 115.5,-252 115.5,-252 109.5,-252 103.5,-246 103.5,-240 103.5,-240 103.5,-228 103.5,-228 103.5,-222 109.5,-216 115.5,-216 115.5,-216 211.5,-216 211.5,-216 217.5,-216 223.5,-222 223.5,-228 223.5,-228 223.5,-240 223.5,-240 223.5,-246 217.5,-252 211.5,-252"/>
<text text-anchor="middle" x="163.5" y="-231.5" font-family="sans" font-size="10.00">metagenome_assembly</text>
</g>
<!-- 1&#45;&gt;4 -->
<g id="edge7" class="edge">
<title>1&#45;&gt;4</title>
<path fill="none" stroke="grey" stroke-width="2" d="M97.25,-287.7C108.34,-278.88 121.97,-268.03 133.99,-258.47"/>
<polygon fill="grey" stroke="grey" stroke-width="2" points="136.35,-261.07 142,-252.1 131.99,-255.59 136.35,-261.07"/>
</g>
<!-- 2 -->
<g id="node3" class="node">
<title>2</title>
<path fill="none" stroke="#c6d856" stroke-width="2" d="M149,-108C149,-108 78,-108 78,-108 72,-108 66,-102 66,-96 66,-96 66,-84 66,-84 66,-78 72,-72 78,-72 78,-72 149,-72 149,-72 155,-72 161,-78 161,-84 161,-84 161,-96 161,-96 161,-102 155,-108 149,-108"/>
<text text-anchor="middle" x="113.5" y="-87.5" font-family="sans" font-size="10.00">infer_class_labels</text>
</g>
<!-- 2&#45;&gt;0 -->
<g id="edge2" class="edge">
<title>2&#45;&gt;0</title>
<path fill="none" stroke="grey" stroke-width="2" d="M104.11,-71.7C99.74,-63.64 94.44,-53.89 89.6,-44.98"/>
<polygon fill="grey" stroke="grey" stroke-width="2" points="92.63,-43.22 84.79,-36.1 86.48,-46.56 92.63,-43.22"/>
</g>
<!-- 3&#45;&gt;2 -->
<g id="edge3" class="edge">
<title>3&#45;&gt;2</title>
<path fill="none" stroke="grey" stroke-width="2" d="M109.74,-143.7C110.29,-135.98 110.95,-126.71 111.56,-118.11"/>
<polygon fill="grey" stroke="grey" stroke-width="2" points="115.06,-118.33 112.28,-108.1 108.07,-117.83 115.06,-118.33"/>
</g>
<!-- 4&#45;&gt;3 -->
<g id="edge5" class="edge">
<title>4&#45;&gt;3</title>
<path fill="none" stroke="grey" stroke-width="2" d="M149.9,-215.7C143.38,-207.39 135.43,-197.28 128.25,-188.14"/>
<polygon fill="grey" stroke="grey" stroke-width="2" points="130.87,-185.81 121.94,-180.1 125.37,-190.13 130.87,-185.81"/>
</g>
<!-- 5 -->
<g id="node6" class="node">
<title>5</title>
<path fill="none" stroke="#56d87b" stroke-width="2" d="M246,-180C246,-180 177,-180 177,-180 171,-180 165,-174 165,-168 165,-168 165,-156 165,-156 165,-150 171,-144 177,-144 177,-144 246,-144 246,-144 252,-144 258,-150 258,-156 258,-156 258,-168 258,-168 258,-174 252,-180 246,-180"/>
<text text-anchor="middle" x="211.5" y="-159.5" font-family="sans" font-size="10.00">get_virmet_labels</text>
</g>
<!-- 5&#45;&gt;2 -->
<g id="edge4" class="edge">
<title>5&#45;&gt;2</title>
<path fill="none" stroke="grey" stroke-width="2" d="M187.53,-143.88C174.95,-134.89 159.37,-123.76 145.75,-114.03"/>
<polygon fill="grey" stroke="grey" stroke-width="2" points="147.74,-111.15 137.57,-108.19 143.67,-116.85 147.74,-111.15"/>
</g>
</g>
</svg>
