<?xml version="1.0" encoding="UTF-8" standalone="no"?>
<!DOCTYPE svg PUBLIC "-//W3C//DTD SVG 1.1//EN"
 "http://www.w3.org/Graphics/SVG/1.1/DTD/svg11.dtd">
<!-- Generated by graphviz version 2.47.3 (0)
 -->
<!-- Title: snakemake_dag Pages: 1 -->
<svg width="322pt" height="116pt"
 viewBox="0.00 0.00 322.00 116.00" xmlns="http://www.w3.org/2000/svg" xmlns:xlink="http://www.w3.org/1999/xlink">
<g id="graph0" class="graph" transform="scale(1 1) rotate(0) translate(4 112)">
<title>snakemake_dag</title>
<polygon fill="white" stroke="transparent" points="-4,4 -4,-112 318,-112 318,4 -4,4"/>
<!-- 0 -->
<g id="node1" class="node">
<title>0</title>
<path fill="none" stroke="#56d8d8" stroke-width="2" d="M96,-108C96,-108 12,-108 12,-108 6,-108 0,-102 0,-96 0,-96 0,-84 0,-84 0,-78 6,-72 12,-72 12,-72 96,-72 96,-72 102,-72 108,-78 108,-84 108,-84 108,-96 108,-96 108,-102 102,-108 96,-108"/>
<text text-anchor="middle" x="54" y="-87.5" font-family="sans" font-size="10.00">get_sequence_labels</text>
</g>
<!-- 1 -->
<g id="node2" class="node">
<title>1</title>
<path fill="none" stroke="#d6d856" stroke-width="2" d="M172,-36C172,-36 76,-36 76,-36 70,-36 64,-30 64,-24 64,-24 64,-12 64,-12 64,-6 70,0 76,0 76,0 172,0 172,0 178,0 184,-6 184,-12 184,-12 184,-24 184,-24 184,-30 178,-36 172,-36"/>
<text text-anchor="middle" x="124" y="-15.5" font-family="sans" font-size="10.00">metagenome_assembly</text>
</g>
<!-- 2 -->
<g id="node3" class="node">
<title>2</title>
<path fill="none" stroke="#59d856" stroke-width="2" d="M243.5,-108C243.5,-108 138.5,-108 138.5,-108 132.5,-108 126.5,-102 126.5,-96 126.5,-96 126.5,-84 126.5,-84 126.5,-78 132.5,-72 138.5,-72 138.5,-72 243.5,-72 243.5,-72 249.5,-72 255.5,-78 255.5,-84 255.5,-84 255.5,-96 255.5,-96 255.5,-102 249.5,-108 243.5,-108"/>
<text text-anchor="middle" x="191" y="-87.5" font-family="sans" font-size="10.00">get_classified_sequences</text>
</g>
<!-- 2&#45;&gt;1 -->
<g id="edge1" class="edge">
<title>2&#45;&gt;1</title>
<path fill="none" stroke="grey" stroke-width="2" d="M174.44,-71.7C166.32,-63.22 156.41,-52.86 147.53,-43.58"/>
<polygon fill="grey" stroke="grey" stroke-width="2" points="149.81,-40.91 140.37,-36.1 144.76,-45.75 149.81,-40.91"/>
</g>
<!-- 3 -->
<g id="node4" class="node">
<title>3</title>
<path fill="none" stroke="#d85656" stroke-width="2" d="M302,-36C302,-36 214,-36 214,-36 208,-36 202,-30 202,-24 202,-24 202,-12 202,-12 202,-6 208,0 214,0 214,0 302,0 302,0 308,0 314,-6 314,-12 314,-12 314,-24 314,-24 314,-30 308,-36 302,-36"/>
<text text-anchor="middle" x="258" y="-15.5" font-family="sans" font-size="10.00">get_quality_measures</text>
</g>
<!-- 2&#45;&gt;3 -->
<g id="edge2" class="edge">
<title>2&#45;&gt;3</title>
<path fill="none" stroke="grey" stroke-width="2" d="M207.56,-71.7C215.68,-63.22 225.59,-52.86 234.47,-43.58"/>
<polygon fill="grey" stroke="grey" stroke-width="2" points="237.24,-45.75 241.63,-36.1 232.19,-40.91 237.24,-45.75"/>
</g>
</g>
</svg>
