<?xml version="1.0" encoding="UTF-8" standalone="no"?>
<!DOCTYPE svg PUBLIC "-//W3C//DTD SVG 1.1//EN"
 "http://www.w3.org/Graphics/SVG/1.1/DTD/svg11.dtd">
<!-- Generated by graphviz version 2.47.3 (0)
 -->
<!-- Title: snakemake_dag Pages: 1 -->
<svg width="462pt" height="332pt"
 viewBox="0.00 0.00 462.00 332.00" xmlns="http://www.w3.org/2000/svg" xmlns:xlink="http://www.w3.org/1999/xlink">
<g id="graph0" class="graph" transform="scale(1 1) rotate(0) translate(4 328)">
<title>snakemake_dag</title>
<polygon fill="white" stroke="transparent" points="-4,4 -4,-328 458,-328 458,4 -4,4"/>
<!-- 0 -->
<g id="node1" class="node">
<title>0</title>
<path fill="none" stroke="#d88d56" stroke-width="2" d="M221,-36C221,-36 191,-36 191,-36 185,-36 179,-30 179,-24 179,-24 179,-12 179,-12 179,-6 185,0 191,0 191,0 221,0 221,0 227,0 233,-6 233,-12 233,-12 233,-24 233,-24 233,-30 227,-36 221,-36"/>
<text text-anchor="middle" x="206" y="-15.5" font-family="sans" font-size="10.00">all</text>
</g>
<!-- 1 -->
<g id="node2" class="node">
<title>1</title>
<path fill="none" stroke="#56d8c1" stroke-width="2" d="M100,-180C100,-180 12,-180 12,-180 6,-180 0,-174 0,-168 0,-168 0,-156 0,-156 0,-150 6,-144 12,-144 12,-144 100,-144 100,-144 106,-144 112,-150 112,-156 112,-156 112,-168 112,-168 112,-174 106,-180 100,-180"/>
<text text-anchor="middle" x="56" y="-159.5" font-family="sans" font-size="10.00">get_quality_measures</text>
</g>
<!-- 1&#45;&gt;0 -->
<g id="edge1" class="edge">
<title>1&#45;&gt;0</title>
<path fill="none" stroke="grey" stroke-width="2" d="M55.14,-143.89C55.08,-124.31 57.93,-92.33 75,-72 98.49,-44.01 138.99,-30.65 168.76,-24.37"/>
<polygon fill="grey" stroke="grey" stroke-width="2" points="169.64,-27.77 178.79,-22.43 168.31,-20.89 169.64,-27.77"/>
</g>
<!-- 2 -->
<g id="node3" class="node">
<title>2</title>
<path fill="none" stroke="#d85656" stroke-width="2" d="M152.5,-324C152.5,-324 47.5,-324 47.5,-324 41.5,-324 35.5,-318 35.5,-312 35.5,-312 35.5,-300 35.5,-300 35.5,-294 41.5,-288 47.5,-288 47.5,-288 152.5,-288 152.5,-288 158.5,-288 164.5,-294 164.5,-300 164.5,-300 164.5,-312 164.5,-312 164.5,-318 158.5,-324 152.5,-324"/>
<text text-anchor="middle" x="100" y="-303.5" font-family="sans" font-size="10.00">get_classified_sequences</text>
</g>
<!-- 2&#45;&gt;1 -->
<g id="edge5" class="edge">
<title>2&#45;&gt;1</title>
<path fill="none" stroke="grey" stroke-width="2" d="M90.62,-287.75C85.41,-277.59 79.16,-264.34 75,-252 68.15,-231.7 63.22,-207.93 60.11,-190.06"/>
<polygon fill="grey" stroke="grey" stroke-width="2" points="63.53,-189.33 58.44,-180.04 56.63,-190.48 63.53,-189.33"/>
</g>
<!-- 7 -->
<g id="node8" class="node">
<title>7</title>
<path fill="none" stroke="#d8bc56" stroke-width="2" d="M192,-252C192,-252 96,-252 96,-252 90,-252 84,-246 84,-240 84,-240 84,-228 84,-228 84,-222 90,-216 96,-216 96,-216 192,-216 192,-216 198,-216 204,-222 204,-228 204,-228 204,-240 204,-240 204,-246 198,-252 192,-252"/>
<text text-anchor="middle" x="144" y="-231.5" font-family="sans" font-size="10.00">metagenome_assembly</text>
</g>
<!-- 2&#45;&gt;7 -->
<g id="edge10" class="edge">
<title>2&#45;&gt;7</title>
<path fill="none" stroke="grey" stroke-width="2" d="M110.88,-287.7C115.99,-279.56 122.2,-269.69 127.84,-260.7"/>
<polygon fill="grey" stroke="grey" stroke-width="2" points="130.89,-262.43 133.25,-252.1 124.96,-258.71 130.89,-262.43"/>
</g>
<!-- 3 -->
<g id="node4" class="node">
<title>3</title>
<path fill="none" stroke="#88d856" stroke-width="2" d="M442,-108C442,-108 296,-108 296,-108 290,-108 284,-102 284,-96 284,-96 284,-84 284,-84 284,-78 290,-72 296,-72 296,-72 442,-72 442,-72 448,-72 454,-78 454,-84 454,-84 454,-96 454,-96 454,-102 448,-108 442,-108"/>
<text text-anchor="middle" x="369" y="-87.5" font-family="sans" font-size="10.00">get_quality_measures_subcategory</text>
</g>
<!-- 3&#45;&gt;0 -->
<g id="edge2" class="edge">
<title>3&#45;&gt;0</title>
<path fill="none" stroke="grey" stroke-width="2" d="M329.13,-71.88C302.72,-60.53 268.34,-45.77 242.62,-34.73"/>
<polygon fill="grey" stroke="grey" stroke-width="2" points="243.79,-31.42 233.22,-30.69 241.03,-37.85 243.79,-31.42"/>
</g>
<!-- 4 -->
<g id="node5" class="node">
<title>4</title>
<path fill="none" stroke="#56c1d8" stroke-width="2" d="M377,-180C377,-180 327,-180 327,-180 321,-180 315,-174 315,-168 315,-168 315,-156 315,-156 315,-150 321,-144 327,-144 327,-144 377,-144 377,-144 383,-144 389,-150 389,-156 389,-156 389,-168 389,-168 389,-174 383,-180 377,-180"/>
<text text-anchor="middle" x="352" y="-159.5" font-family="sans" font-size="10.00">label_contigs</text>
</g>
<!-- 4&#45;&gt;0 -->
<g id="edge3" class="edge">
<title>4&#45;&gt;0</title>
<path fill="none" stroke="grey" stroke-width="2" d="M322.62,-143.82C307.55,-134.27 289.39,-121.6 275,-108 254.64,-88.76 235.45,-63.17 222.5,-44.37"/>
<polygon fill="grey" stroke="grey" stroke-width="2" points="225.34,-42.32 216.84,-36 219.55,-46.24 225.34,-42.32"/>
</g>
<!-- 4&#45;&gt;3 -->
<g id="edge6" class="edge">
<title>4&#45;&gt;3</title>
<path fill="none" stroke="grey" stroke-width="2" d="M356.2,-143.7C358.1,-135.9 360.38,-126.51 362.48,-117.83"/>
<polygon fill="grey" stroke="grey" stroke-width="2" points="365.89,-118.65 364.85,-108.1 359.08,-117 365.89,-118.65"/>
</g>
<!-- 5 -->
<g id="node6" class="node">
<title>5</title>
<path fill="none" stroke="#59d856" stroke-width="2" d="M394,-252C394,-252 310,-252 310,-252 304,-252 298,-246 298,-240 298,-240 298,-228 298,-228 298,-222 304,-216 310,-216 310,-216 394,-216 394,-216 400,-216 406,-222 406,-228 406,-228 406,-240 406,-240 406,-246 400,-252 394,-252"/>
<text text-anchor="middle" x="352" y="-231.5" font-family="sans" font-size="10.00">get_sequence_labels</text>
</g>
<!-- 5&#45;&gt;4 -->
<g id="edge7" class="edge">
<title>5&#45;&gt;4</title>
<path fill="none" stroke="grey" stroke-width="2" d="M352,-215.7C352,-207.98 352,-198.71 352,-190.11"/>
<polygon fill="grey" stroke="grey" stroke-width="2" points="355.5,-190.1 352,-180.1 348.5,-190.1 355.5,-190.1"/>
</g>
<!-- 6 -->
<g id="node7" class="node">
<title>6</title>
<path fill="none" stroke="#bed856" stroke-width="2" d="M216,-108C216,-108 96,-108 96,-108 90,-108 84,-102 84,-96 84,-96 84,-84 84,-84 84,-78 90,-72 96,-72 96,-72 216,-72 216,-72 222,-72 228,-78 228,-84 228,-84 228,-96 228,-96 228,-102 222,-108 216,-108"/>
<text text-anchor="middle" x="156" y="-87.5" font-family="sans" font-size="10.00">remove_intermediate_contigs</text>
</g>
<!-- 6&#45;&gt;0 -->
<g id="edge4" class="edge">
<title>6&#45;&gt;0</title>
<path fill="none" stroke="grey" stroke-width="2" d="M168.36,-71.7C174.23,-63.47 181.37,-53.48 187.84,-44.42"/>
<polygon fill="grey" stroke="grey" stroke-width="2" points="190.82,-46.28 193.78,-36.1 185.12,-42.21 190.82,-46.28"/>
</g>
<!-- 7&#45;&gt;6 -->
<g id="edge8" class="edge">
<title>7&#45;&gt;6</title>
<path fill="none" stroke="grey" stroke-width="2" d="M145.45,-215.87C147.49,-191.67 151.25,-147.21 153.69,-118.39"/>
<polygon fill="grey" stroke="grey" stroke-width="2" points="157.19,-118.45 154.55,-108.19 150.22,-117.86 157.19,-118.45"/>
</g>
<!-- 8 -->
<g id="node9" class="node">
<title>8</title>
<path fill="none" stroke="#56d88a" stroke-width="2" d="M267.5,-180C267.5,-180 182.5,-180 182.5,-180 176.5,-180 170.5,-174 170.5,-168 170.5,-168 170.5,-156 170.5,-156 170.5,-150 176.5,-144 182.5,-144 182.5,-144 267.5,-144 267.5,-144 273.5,-144 279.5,-150 279.5,-156 279.5,-156 279.5,-168 279.5,-168 279.5,-174 273.5,-180 267.5,-180"/>
<text text-anchor="middle" x="225" y="-159.5" font-family="sans" font-size="10.00">combine_contig_data</text>
</g>
<!-- 7&#45;&gt;8 -->
<g id="edge11" class="edge">
<title>7&#45;&gt;8</title>
<path fill="none" stroke="grey" stroke-width="2" d="M164.02,-215.7C174.13,-206.97 186.54,-196.24 197.52,-186.75"/>
<polygon fill="grey" stroke="grey" stroke-width="2" points="199.93,-189.29 205.21,-180.1 195.35,-183.99 199.93,-189.29"/>
</g>
<!-- 8&#45;&gt;6 -->
<g id="edge9" class="edge">
<title>8&#45;&gt;6</title>
<path fill="none" stroke="grey" stroke-width="2" d="M207.94,-143.7C199.5,-135.14 189.18,-124.66 179.96,-115.3"/>
<polygon fill="grey" stroke="grey" stroke-width="2" points="182.37,-112.77 172.86,-108.1 177.39,-117.68 182.37,-112.77"/>
</g>
</g>
</svg>
