<?xml version="1.0" encoding="UTF-8" standalone="no"?>
<!DOCTYPE svg PUBLIC "-//W3C//DTD SVG 1.1//EN"
 "http://www.w3.org/Graphics/SVG/1.1/DTD/svg11.dtd">
<!-- Generated by graphviz version 2.47.3 (0)
 -->
<!-- Title: snakemake_dag Pages: 1 -->
<svg width="272pt" height="404pt"
 viewBox="0.00 0.00 271.58 404.00" xmlns="http://www.w3.org/2000/svg" xmlns:xlink="http://www.w3.org/1999/xlink">
<g id="graph0" class="graph" transform="scale(1 1) rotate(0) translate(4 400)">
<title>snakemake_dag</title>
<polygon fill="white" stroke="transparent" points="-4,4 -4,-400 267.58,-400 267.58,4 -4,4"/>
<!-- 0 -->
<g id="node1" class="node">
<title>0</title>
<path fill="none" stroke="#d8a456" stroke-width="2" d="M216.5,-36C216.5,-36 186.5,-36 186.5,-36 180.5,-36 174.5,-30 174.5,-24 174.5,-24 174.5,-12 174.5,-12 174.5,-6 180.5,0 186.5,0 186.5,0 216.5,0 216.5,0 222.5,0 228.5,-6 228.5,-12 228.5,-12 228.5,-24 228.5,-24 228.5,-30 222.5,-36 216.5,-36"/>
<text text-anchor="middle" x="201.5" y="-15.5" font-family="sans" font-size="10.00">all</text>
</g>
<!-- 1 -->
<g id="node2" class="node">
<title>1</title>
<path fill="none" stroke="#56d8c9" stroke-width="2" d="M161,-108C161,-108 84,-108 84,-108 78,-108 72,-102 72,-96 72,-96 72,-84 72,-84 72,-78 78,-72 84,-72 84,-72 161,-72 161,-72 167,-72 173,-78 173,-84 173,-84 173,-96 173,-96 173,-102 167,-108 161,-108"/>
<text text-anchor="middle" x="122.5" y="-87.5" font-family="sans" font-size="10.00">get_quality_metrics</text>
</g>
<!-- 1&#45;&gt;0 -->
<g id="edge2" class="edge">
<title>1&#45;&gt;0</title>
<path fill="none" stroke="grey" stroke-width="2" d="M142.03,-71.7C151.88,-62.97 163.99,-52.24 174.7,-42.75"/>
<polygon fill="grey" stroke="grey" stroke-width="2" points="177.03,-45.36 182.2,-36.1 172.39,-40.12 177.03,-45.36"/>
</g>
<!-- 2 -->
<g id="node3" class="node">
<title>2</title>
<path fill="none" stroke="#56a2d8" stroke-width="2" d="M139,-396C139,-396 12,-396 12,-396 6,-396 0,-390 0,-384 0,-384 0,-372 0,-372 0,-366 6,-360 12,-360 12,-360 139,-360 139,-360 145,-360 151,-366 151,-372 151,-372 151,-384 151,-384 151,-390 145,-396 139,-396"/>
<text text-anchor="middle" x="75.5" y="-375.5" font-family="sans" font-size="10.00">get_quality_filtered_sequences</text>
</g>
<!-- 2&#45;&gt;1 -->
<g id="edge5" class="edge">
<title>2&#45;&gt;1</title>
<path fill="none" stroke="grey" stroke-width="2" d="M66.56,-359.85C52.29,-330.18 27.44,-267.48 42.5,-216 53.76,-177.51 80.9,-139.62 100.45,-115.82"/>
<polygon fill="grey" stroke="grey" stroke-width="2" points="103.26,-117.92 107.01,-108.02 97.9,-113.42 103.26,-117.92"/>
</g>
<!-- 4 -->
<g id="node5" class="node">
<title>4</title>
<path fill="none" stroke="#c6d856" stroke-width="2" d="M117,-252C117,-252 64,-252 64,-252 58,-252 52,-246 52,-240 52,-240 52,-228 52,-228 52,-222 58,-216 64,-216 64,-216 117,-216 117,-216 123,-216 129,-222 129,-228 129,-228 129,-240 129,-240 129,-246 123,-252 117,-252"/>
<text text-anchor="middle" x="90.5" y="-231.5" font-family="sans" font-size="10.00">read_mapping</text>
</g>
<!-- 2&#45;&gt;4 -->
<g id="edge9" class="edge">
<title>2&#45;&gt;4</title>
<path fill="none" stroke="grey" stroke-width="2" d="M77.31,-359.87C79.87,-335.67 84.56,-291.21 87.61,-262.39"/>
<polygon fill="grey" stroke="grey" stroke-width="2" points="91.11,-262.5 88.68,-252.19 84.15,-261.77 91.11,-262.5"/>
</g>
<!-- 5 -->
<g id="node6" class="node">
<title>5</title>
<path fill="none" stroke="#78d856" stroke-width="2" d="M211.5,-324C211.5,-324 115.5,-324 115.5,-324 109.5,-324 103.5,-318 103.5,-312 103.5,-312 103.5,-300 103.5,-300 103.5,-294 109.5,-288 115.5,-288 115.5,-288 211.5,-288 211.5,-288 217.5,-288 223.5,-294 223.5,-300 223.5,-300 223.5,-312 223.5,-312 223.5,-318 217.5,-324 211.5,-324"/>
<text text-anchor="middle" x="163.5" y="-303.5" font-family="sans" font-size="10.00">metagenome_assembly</text>
</g>
<!-- 2&#45;&gt;5 -->
<g id="edge10" class="edge">
<title>2&#45;&gt;5</title>
<path fill="none" stroke="grey" stroke-width="2" d="M97.25,-359.7C108.34,-350.88 121.97,-340.03 133.99,-330.47"/>
<polygon fill="grey" stroke="grey" stroke-width="2" points="136.35,-333.07 142,-324.1 131.99,-327.59 136.35,-333.07"/>
</g>
<!-- 3 -->
<g id="node4" class="node">
<title>3</title>
<path fill="none" stroke="#d85656" stroke-width="2" d="M208,-180C208,-180 137,-180 137,-180 131,-180 125,-174 125,-168 125,-168 125,-156 125,-156 125,-150 131,-144 137,-144 137,-144 208,-144 208,-144 214,-144 220,-150 220,-156 220,-156 220,-168 220,-168 220,-174 214,-180 208,-180"/>
<text text-anchor="middle" x="172.5" y="-159.5" font-family="sans" font-size="10.00">infer_class_labels</text>
</g>
<!-- 3&#45;&gt;0 -->
<g id="edge3" class="edge">
<title>3&#45;&gt;0</title>
<path fill="none" stroke="grey" stroke-width="2" d="M176,-143.87C180.96,-119.56 190.1,-74.82 195.98,-46.01"/>
<polygon fill="grey" stroke="grey" stroke-width="2" points="199.42,-46.69 197.99,-36.19 192.56,-45.29 199.42,-46.69"/>
</g>
<!-- 3&#45;&gt;1 -->
<g id="edge4" class="edge">
<title>3&#45;&gt;1</title>
<path fill="none" stroke="grey" stroke-width="2" d="M160.14,-143.7C154.27,-135.47 147.13,-125.48 140.66,-116.42"/>
<polygon fill="grey" stroke="grey" stroke-width="2" points="143.38,-114.21 134.72,-108.1 137.68,-118.28 143.38,-114.21"/>
</g>
<!-- 4&#45;&gt;3 -->
<g id="edge7" class="edge">
<title>4&#45;&gt;3</title>
<path fill="none" stroke="grey" stroke-width="2" d="M110.77,-215.7C121,-206.97 133.56,-196.24 144.68,-186.75"/>
<polygon fill="grey" stroke="grey" stroke-width="2" points="147.13,-189.26 152.46,-180.1 142.59,-183.94 147.13,-189.26"/>
</g>
<!-- 5&#45;&gt;0 -->
<g id="edge1" class="edge">
<title>5&#45;&gt;0</title>
<path fill="none" stroke="grey" stroke-width="2" d="M208.53,-287.86C224.05,-279.53 239.72,-267.81 248.5,-252 286.17,-184.12 243.1,-90.19 217.61,-45.14"/>
<polygon fill="grey" stroke="grey" stroke-width="2" points="220.52,-43.19 212.47,-36.3 214.47,-46.7 220.52,-43.19"/>
</g>
<!-- 5&#45;&gt;4 -->
<g id="edge8" class="edge">
<title>5&#45;&gt;4</title>
<path fill="none" stroke="grey" stroke-width="2" d="M145.46,-287.7C136.44,-279.05 125.38,-268.45 115.56,-259.03"/>
<polygon fill="grey" stroke="grey" stroke-width="2" points="117.98,-256.5 108.34,-252.1 113.13,-261.55 117.98,-256.5"/>
</g>
<!-- 6 -->
<g id="node7" class="node">
<title>6</title>
<path fill="none" stroke="#56d87b" stroke-width="2" d="M228,-252C228,-252 159,-252 159,-252 153,-252 147,-246 147,-240 147,-240 147,-228 147,-228 147,-222 153,-216 159,-216 159,-216 228,-216 228,-216 234,-216 240,-222 240,-228 240,-228 240,-240 240,-240 240,-246 234,-252 228,-252"/>
<text text-anchor="middle" x="193.5" y="-231.5" font-family="sans" font-size="10.00">get_virmet_labels</text>
</g>
<!-- 6&#45;&gt;3 -->
<g id="edge6" class="edge">
<title>6&#45;&gt;3</title>
<path fill="none" stroke="grey" stroke-width="2" d="M188.31,-215.7C185.97,-207.9 183.15,-198.51 180.55,-189.83"/>
<polygon fill="grey" stroke="grey" stroke-width="2" points="183.86,-188.68 177.63,-180.1 177.15,-190.69 183.86,-188.68"/>
</g>
</g>
</svg>
